<?xml version="1.0" encoding="utf-8" standalone="no"?>
<!DOCTYPE svg PUBLIC "-//W3C//DTD SVG 1.1//EN"
  "http://www.w3.org/Graphics/SVG/1.1/DTD/svg11.dtd">
<!-- Created with matplotlib (http://matplotlib.org/) -->
<svg height="432pt" version="1.1" viewBox="0 0 576 432" width="576pt" xmlns="http://www.w3.org/2000/svg" xmlns:xlink="http://www.w3.org/1999/xlink">
 <defs>
  <style type="text/css">
*{stroke-linecap:butt;stroke-linejoin:round;}
  </style>
 </defs>
 <g id="figure_1">
  <g id="patch_1">
   <path d="
M0 432
L576 432
L576 0
L0 0
z
" style="fill:#ffffff;"/>
  </g>
  <g id="axes_1">
   <g id="patch_2">
    <path d="
M72 388.8
L518.4 388.8
L518.4 43.2
L72 43.2
z
" style="fill:#ffffff;"/>
   </g>
   <g id="line2d_1">
    <path clip-path="url(#p7ff5b81e1d)" d="
M518.4 380.668
L509.977 384.686
L501.555 388.8
L501.555 382.083
L493.132 386.267
L493.132 379.35
L484.709 383.605
L476.287 387.969
L476.287 380.805
L476.287 373.453
L467.864 377.856
L467.864 370.265
L467.864 362.466
L459.442 366.9
L451.019 371.459
L442.596 376.149
L442.596 367.983
L442.596 359.576
L442.596 350.919
L434.174 355.582
L425.751 360.388
L417.328 365.344
L417.328 356.229
L408.906 361.277
L408.906 351.797
L400.483 356.94
L392.06 362.258
L392.06 352.303
L383.638 357.726
L383.638 347.336
L375.215 352.865
L366.792 358.6
L366.792 347.638
L358.37 353.492
L358.37 342
L349.947 347.976
L349.947 335.902
L341.525 342
L333.102 348.357
L324.679 354.991
L316.257 361.92
L307.834 369.164
L299.411 376.744
L290.989 384.686
L290.989 371.151
L290.989 356.94
L282.566 364.985
L282.566 349.863
L282.566 333.924
L274.143 342
L265.721 350.537
L257.298 359.576
L257.298 342
L248.875 351.337
L240.453 361.277
L240.453 342
L232.03 352.303
L232.03 331.329
L223.608 342
L223.608 319.015
L215.185 330.048
L215.185 304.65
L215.185 277.043
L206.762 287.673
L206.762 256.629
L198.34 267.3
L198.34 231.916
L189.917 242.4
L189.917 201.388
L189.917 155.25
L181.494 162.72
L173.072 171.257
L164.649 181.108
L156.226 192.6
L147.804 206.182
L147.804 132.84
L139.381 142.8
L130.958 155.25
L122.536 171.257
L114.113 192.6
L114.113 43.2
L105.691 43.2
L97.2679 43.2
L88.8453 43.2
L80.4226 43.2
L72 43.2" style="fill:none;stroke:#ff0000;stroke-linecap:square;"/>
    <defs>
     <path d="
M-3 0
L3 0
M0 3
L0 -3" id="m1dff62e806" style="stroke:#ff0000;stroke-width:0.5;"/>
    </defs>
    <g clip-path="url(#p7ff5b81e1d)">
     <use style="fill:#ff0000;stroke:#ff0000;stroke-width:0.5;" x="518.4" xlink:href="#m1dff62e806" y="380.668235294"/>
     <use style="fill:#ff0000;stroke:#ff0000;stroke-width:0.5;" x="509.977358491" xlink:href="#m1dff62e806" y="384.685714286"/>
     <use style="fill:#ff0000;stroke:#ff0000;stroke-width:0.5;" x="501.554716981" xlink:href="#m1dff62e806" y="388.8"/>
     <use style="fill:#ff0000;stroke:#ff0000;stroke-width:0.5;" x="501.554716981" xlink:href="#m1dff62e806" y="382.082926829"/>
     <use style="fill:#ff0000;stroke:#ff0000;stroke-width:0.5;" x="493.132075472" xlink:href="#m1dff62e806" y="386.266666667"/>
     <use style="fill:#ff0000;stroke:#ff0000;stroke-width:0.5;" x="493.132075472" xlink:href="#m1dff62e806" y="379.35"/>
     <use style="fill:#ff0000;stroke:#ff0000;stroke-width:0.5;" x="484.709433962" xlink:href="#m1dff62e806" y="383.605063291"/>
     <use style="fill:#ff0000;stroke:#ff0000;stroke-width:0.5;" x="476.286792453" xlink:href="#m1dff62e806" y="387.969230769"/>
     <use style="fill:#ff0000;stroke:#ff0000;stroke-width:0.5;" x="476.286792453" xlink:href="#m1dff62e806" y="380.805194805"/>
     <use style="fill:#ff0000;stroke:#ff0000;stroke-width:0.5;" x="476.286792453" xlink:href="#m1dff62e806" y="373.452631579"/>
     <use style="fill:#ff0000;stroke:#ff0000;stroke-width:0.5;" x="467.864150943" xlink:href="#m1dff62e806" y="377.856"/>
     <use style="fill:#ff0000;stroke:#ff0000;stroke-width:0.5;" x="467.864150943" xlink:href="#m1dff62e806" y="370.264864865"/>
     <use style="fill:#ff0000;stroke:#ff0000;stroke-width:0.5;" x="467.864150943" xlink:href="#m1dff62e806" y="362.465753425"/>
     <use style="fill:#ff0000;stroke:#ff0000;stroke-width:0.5;" x="459.441509434" xlink:href="#m1dff62e806" y="366.9"/>
     <use style="fill:#ff0000;stroke:#ff0000;stroke-width:0.5;" x="451.018867925" xlink:href="#m1dff62e806" y="371.45915493"/>
     <use style="fill:#ff0000;stroke:#ff0000;stroke-width:0.5;" x="442.596226415" xlink:href="#m1dff62e806" y="376.148571429"/>
     <use style="fill:#ff0000;stroke:#ff0000;stroke-width:0.5;" x="442.596226415" xlink:href="#m1dff62e806" y="367.982608696"/>
     <use style="fill:#ff0000;stroke:#ff0000;stroke-width:0.5;" x="442.596226415" xlink:href="#m1dff62e806" y="359.576470588"/>
     <use style="fill:#ff0000;stroke:#ff0000;stroke-width:0.5;" x="442.596226415" xlink:href="#m1dff62e806" y="350.919402985"/>
     <use style="fill:#ff0000;stroke:#ff0000;stroke-width:0.5;" x="434.173584906" xlink:href="#m1dff62e806" y="355.581818182"/>
     <use style="fill:#ff0000;stroke:#ff0000;stroke-width:0.5;" x="425.750943396" xlink:href="#m1dff62e806" y="360.387692308"/>
     <use style="fill:#ff0000;stroke:#ff0000;stroke-width:0.5;" x="417.328301887" xlink:href="#m1dff62e806" y="365.34375"/>
     <use style="fill:#ff0000;stroke:#ff0000;stroke-width:0.5;" x="417.328301887" xlink:href="#m1dff62e806" y="356.228571429"/>
     <use style="fill:#ff0000;stroke:#ff0000;stroke-width:0.5;" x="408.905660377" xlink:href="#m1dff62e806" y="361.277419355"/>
     <use style="fill:#ff0000;stroke:#ff0000;stroke-width:0.5;" x="408.905660377" xlink:href="#m1dff62e806" y="351.796721311"/>
     <use style="fill:#ff0000;stroke:#ff0000;stroke-width:0.5;" x="400.483018868" xlink:href="#m1dff62e806" y="356.94"/>
     <use style="fill:#ff0000;stroke:#ff0000;stroke-width:0.5;" x="392.060377358" xlink:href="#m1dff62e806" y="362.257627119"/>
     <use style="fill:#ff0000;stroke:#ff0000;stroke-width:0.5;" x="392.060377358" xlink:href="#m1dff62e806" y="352.303448276"/>
     <use style="fill:#ff0000;stroke:#ff0000;stroke-width:0.5;" x="383.637735849" xlink:href="#m1dff62e806" y="357.726315789"/>
     <use style="fill:#ff0000;stroke:#ff0000;stroke-width:0.5;" x="383.637735849" xlink:href="#m1dff62e806" y="347.335714286"/>
     <use style="fill:#ff0000;stroke:#ff0000;stroke-width:0.5;" x="375.21509434" xlink:href="#m1dff62e806" y="352.865454545"/>
     <use style="fill:#ff0000;stroke:#ff0000;stroke-width:0.5;" x="366.79245283" xlink:href="#m1dff62e806" y="358.6"/>
     <use style="fill:#ff0000;stroke:#ff0000;stroke-width:0.5;" x="366.79245283" xlink:href="#m1dff62e806" y="347.637735849"/>
     <use style="fill:#ff0000;stroke:#ff0000;stroke-width:0.5;" x="358.369811321" xlink:href="#m1dff62e806" y="353.492307692"/>
     <use style="fill:#ff0000;stroke:#ff0000;stroke-width:0.5;" x="358.369811321" xlink:href="#m1dff62e806" y="342.0"/>
     <use style="fill:#ff0000;stroke:#ff0000;stroke-width:0.5;" x="349.947169811" xlink:href="#m1dff62e806" y="347.976"/>
     <use style="fill:#ff0000;stroke:#ff0000;stroke-width:0.5;" x="349.947169811" xlink:href="#m1dff62e806" y="335.902040816"/>
     <use style="fill:#ff0000;stroke:#ff0000;stroke-width:0.5;" x="341.524528302" xlink:href="#m1dff62e806" y="342.0"/>
     <use style="fill:#ff0000;stroke:#ff0000;stroke-width:0.5;" x="333.101886792" xlink:href="#m1dff62e806" y="348.357446809"/>
     <use style="fill:#ff0000;stroke:#ff0000;stroke-width:0.5;" x="324.679245283" xlink:href="#m1dff62e806" y="354.991304348"/>
     <use style="fill:#ff0000;stroke:#ff0000;stroke-width:0.5;" x="316.256603774" xlink:href="#m1dff62e806" y="361.92"/>
     <use style="fill:#ff0000;stroke:#ff0000;stroke-width:0.5;" x="307.833962264" xlink:href="#m1dff62e806" y="369.163636364"/>
     <use style="fill:#ff0000;stroke:#ff0000;stroke-width:0.5;" x="299.411320755" xlink:href="#m1dff62e806" y="376.744186047"/>
     <use style="fill:#ff0000;stroke:#ff0000;stroke-width:0.5;" x="290.988679245" xlink:href="#m1dff62e806" y="384.685714286"/>
     <use style="fill:#ff0000;stroke:#ff0000;stroke-width:0.5;" x="290.988679245" xlink:href="#m1dff62e806" y="371.151219512"/>
     <use style="fill:#ff0000;stroke:#ff0000;stroke-width:0.5;" x="290.988679245" xlink:href="#m1dff62e806" y="356.94"/>
     <use style="fill:#ff0000;stroke:#ff0000;stroke-width:0.5;" x="282.566037736" xlink:href="#m1dff62e806" y="364.984615385"/>
     <use style="fill:#ff0000;stroke:#ff0000;stroke-width:0.5;" x="282.566037736" xlink:href="#m1dff62e806" y="349.863157895"/>
     <use style="fill:#ff0000;stroke:#ff0000;stroke-width:0.5;" x="282.566037736" xlink:href="#m1dff62e806" y="333.924324324"/>
     <use style="fill:#ff0000;stroke:#ff0000;stroke-width:0.5;" x="274.143396226" xlink:href="#m1dff62e806" y="342.0"/>
     <use style="fill:#ff0000;stroke:#ff0000;stroke-width:0.5;" x="265.720754717" xlink:href="#m1dff62e806" y="350.537142857"/>
     <use style="fill:#ff0000;stroke:#ff0000;stroke-width:0.5;" x="257.298113208" xlink:href="#m1dff62e806" y="359.576470588"/>
     <use style="fill:#ff0000;stroke:#ff0000;stroke-width:0.5;" x="257.298113208" xlink:href="#m1dff62e806" y="342.0"/>
     <use style="fill:#ff0000;stroke:#ff0000;stroke-width:0.5;" x="248.875471698" xlink:href="#m1dff62e806" y="351.3375"/>
     <use style="fill:#ff0000;stroke:#ff0000;stroke-width:0.5;" x="240.452830189" xlink:href="#m1dff62e806" y="361.277419355"/>
     <use style="fill:#ff0000;stroke:#ff0000;stroke-width:0.5;" x="240.452830189" xlink:href="#m1dff62e806" y="342.0"/>
     <use style="fill:#ff0000;stroke:#ff0000;stroke-width:0.5;" x="232.030188679" xlink:href="#m1dff62e806" y="352.303448276"/>
     <use style="fill:#ff0000;stroke:#ff0000;stroke-width:0.5;" x="232.030188679" xlink:href="#m1dff62e806" y="331.328571429"/>
     <use style="fill:#ff0000;stroke:#ff0000;stroke-width:0.5;" x="223.60754717" xlink:href="#m1dff62e806" y="342.0"/>
     <use style="fill:#ff0000;stroke:#ff0000;stroke-width:0.5;" x="223.60754717" xlink:href="#m1dff62e806" y="319.015384615"/>
     <use style="fill:#ff0000;stroke:#ff0000;stroke-width:0.5;" x="215.18490566" xlink:href="#m1dff62e806" y="330.048"/>
     <use style="fill:#ff0000;stroke:#ff0000;stroke-width:0.5;" x="215.18490566" xlink:href="#m1dff62e806" y="304.65"/>
     <use style="fill:#ff0000;stroke:#ff0000;stroke-width:0.5;" x="215.18490566" xlink:href="#m1dff62e806" y="277.043478261"/>
     <use style="fill:#ff0000;stroke:#ff0000;stroke-width:0.5;" x="206.762264151" xlink:href="#m1dff62e806" y="287.672727273"/>
     <use style="fill:#ff0000;stroke:#ff0000;stroke-width:0.5;" x="206.762264151" xlink:href="#m1dff62e806" y="256.628571429"/>
     <use style="fill:#ff0000;stroke:#ff0000;stroke-width:0.5;" x="198.339622642" xlink:href="#m1dff62e806" y="267.3"/>
     <use style="fill:#ff0000;stroke:#ff0000;stroke-width:0.5;" x="198.339622642" xlink:href="#m1dff62e806" y="231.915789474"/>
     <use style="fill:#ff0000;stroke:#ff0000;stroke-width:0.5;" x="189.916981132" xlink:href="#m1dff62e806" y="242.4"/>
     <use style="fill:#ff0000;stroke:#ff0000;stroke-width:0.5;" x="189.916981132" xlink:href="#m1dff62e806" y="201.388235294"/>
     <use style="fill:#ff0000;stroke:#ff0000;stroke-width:0.5;" x="189.916981132" xlink:href="#m1dff62e806" y="155.25"/>
     <use style="fill:#ff0000;stroke:#ff0000;stroke-width:0.5;" x="181.494339623" xlink:href="#m1dff62e806" y="162.72"/>
     <use style="fill:#ff0000;stroke:#ff0000;stroke-width:0.5;" x="173.071698113" xlink:href="#m1dff62e806" y="171.257142857"/>
     <use style="fill:#ff0000;stroke:#ff0000;stroke-width:0.5;" x="164.649056604" xlink:href="#m1dff62e806" y="181.107692308"/>
     <use style="fill:#ff0000;stroke:#ff0000;stroke-width:0.5;" x="156.226415094" xlink:href="#m1dff62e806" y="192.6"/>
     <use style="fill:#ff0000;stroke:#ff0000;stroke-width:0.5;" x="147.803773585" xlink:href="#m1dff62e806" y="206.181818182"/>
     <use style="fill:#ff0000;stroke:#ff0000;stroke-width:0.5;" x="147.803773585" xlink:href="#m1dff62e806" y="132.84"/>
     <use style="fill:#ff0000;stroke:#ff0000;stroke-width:0.5;" x="139.381132075" xlink:href="#m1dff62e806" y="142.8"/>
     <use style="fill:#ff0000;stroke:#ff0000;stroke-width:0.5;" x="130.958490566" xlink:href="#m1dff62e806" y="155.25"/>
     <use style="fill:#ff0000;stroke:#ff0000;stroke-width:0.5;" x="122.535849057" xlink:href="#m1dff62e806" y="171.257142857"/>
     <use style="fill:#ff0000;stroke:#ff0000;stroke-width:0.5;" x="114.113207547" xlink:href="#m1dff62e806" y="192.6"/>
     <use style="fill:#ff0000;stroke:#ff0000;stroke-width:0.5;" x="114.113207547" xlink:href="#m1dff62e806" y="43.2"/>
     <use style="fill:#ff0000;stroke:#ff0000;stroke-width:0.5;" x="105.690566038" xlink:href="#m1dff62e806" y="43.2"/>
     <use style="fill:#ff0000;stroke:#ff0000;stroke-width:0.5;" x="97.2679245283" xlink:href="#m1dff62e806" y="43.2"/>
     <use style="fill:#ff0000;stroke:#ff0000;stroke-width:0.5;" x="88.8452830189" xlink:href="#m1dff62e806" y="43.2"/>
     <use style="fill:#ff0000;stroke:#ff0000;stroke-width:0.5;" x="80.4226415094" xlink:href="#m1dff62e806" y="43.2"/>
     <use style="fill:#ff0000;stroke:#ff0000;stroke-width:0.5;" x="72.0" xlink:href="#m1dff62e806" y="43.2"/>
    </g>
   </g>
   <g id="matplotlib.axis_1">
    <g id="xtick_1">
     <g id="line2d_2">
      <path clip-path="url(#p7ff5b81e1d)" d="
M72 388.8
L72 43.2" style="fill:none;stroke:#000000;stroke-dasharray:1.000000,3.000000;stroke-dashoffset:0.0;stroke-width:0.5;"/>
     </g>
     <g id="line2d_3">
      <defs>
       <path d="
M0 0
L0 -4" id="m93b0483c22" style="stroke:#000000;stroke-width:0.5;"/>
      </defs>
      <g>
       <use style="stroke:#000000;stroke-width:0.5;" x="72.0" xlink:href="#m93b0483c22" y="388.8"/>
      </g>
     </g>
     <g id="line2d_4">
      <defs>
       <path d="
M0 0
L0 4" id="m741efc42ff" style="stroke:#000000;stroke-width:0.5;"/>
      </defs>
      <g>
       <use style="stroke:#000000;stroke-width:0.5;" x="72.0" xlink:href="#m741efc42ff" y="43.2"/>
      </g>
     </g>
     <g id="text_1">
      <!-- 0.0 -->
      <defs>
       <path d="
M31.7812 66.4062
Q24.1719 66.4062 20.3281 58.9062
Q16.5 51.4219 16.5 36.375
Q16.5 21.3906 20.3281 13.8906
Q24.1719 6.39062 31.7812 6.39062
Q39.4531 6.39062 43.2812 13.8906
Q47.125 21.3906 47.125 36.375
Q47.125 51.4219 43.2812 58.9062
Q39.4531 66.4062 31.7812 66.4062
M31.7812 74.2188
Q44.0469 74.2188 50.5156 64.5156
Q56.9844 54.8281 56.9844 36.375
Q56.9844 17.9688 50.5156 8.26562
Q44.0469 -1.42188 31.7812 -1.42188
Q19.5312 -1.42188 13.0625 8.26562
Q6.59375 17.9688 6.59375 36.375
Q6.59375 54.8281 13.0625 64.5156
Q19.5312 74.2188 31.7812 74.2188" id="BitstreamVeraSans-Roman-30"/>
       <path d="
M10.6875 12.4062
L21 12.4062
L21 0
L10.6875 0
z
" id="BitstreamVeraSans-Roman-2e"/>
      </defs>
      <g transform="translate(63.2521875 401.918125)scale(0.12 -0.12)">
       <use xlink:href="#BitstreamVeraSans-Roman-30"/>
       <use x="63.623046875" xlink:href="#BitstreamVeraSans-Roman-2e"/>
       <use x="95.41015625" xlink:href="#BitstreamVeraSans-Roman-30"/>
      </g>
     </g>
    </g>
    <g id="xtick_2">
     <g id="line2d_5">
      <path clip-path="url(#p7ff5b81e1d)" d="
M161.28 388.8
L161.28 43.2" style="fill:none;stroke:#000000;stroke-dasharray:1.000000,3.000000;stroke-dashoffset:0.0;stroke-width:0.5;"/>
     </g>
     <g id="line2d_6">
      <g>
       <use style="stroke:#000000;stroke-width:0.5;" x="161.28" xlink:href="#m93b0483c22" y="388.8"/>
      </g>
     </g>
     <g id="line2d_7">
      <g>
       <use style="stroke:#000000;stroke-width:0.5;" x="161.28" xlink:href="#m741efc42ff" y="43.2"/>
      </g>
     </g>
     <g id="text_2">
      <!-- 0.2 -->
      <defs>
       <path d="
M19.1875 8.29688
L53.6094 8.29688
L53.6094 0
L7.32812 0
L7.32812 8.29688
Q12.9375 14.1094 22.625 23.8906
Q32.3281 33.6875 34.8125 36.5312
Q39.5469 41.8438 41.4219 45.5312
Q43.3125 49.2188 43.3125 52.7812
Q43.3125 58.5938 39.2344 62.25
Q35.1562 65.9219 28.6094 65.9219
Q23.9688 65.9219 18.8125 64.3125
Q13.6719 62.7031 7.8125 59.4219
L7.8125 69.3906
Q13.7656 71.7812 18.9375 73
Q24.125 74.2188 28.4219 74.2188
Q39.75 74.2188 46.4844 68.5469
Q53.2188 62.8906 53.2188 53.4219
Q53.2188 48.9219 51.5312 44.8906
Q49.8594 40.875 45.4062 35.4062
Q44.1875 33.9844 37.6406 27.2188
Q31.1094 20.4531 19.1875 8.29688" id="BitstreamVeraSans-Roman-32"/>
      </defs>
      <g transform="translate(152.7346875 401.918125)scale(0.12 -0.12)">
       <use xlink:href="#BitstreamVeraSans-Roman-30"/>
       <use x="63.623046875" xlink:href="#BitstreamVeraSans-Roman-2e"/>
       <use x="95.41015625" xlink:href="#BitstreamVeraSans-Roman-32"/>
      </g>
     </g>
    </g>
    <g id="xtick_3">
     <g id="line2d_8">
      <path clip-path="url(#p7ff5b81e1d)" d="
M250.56 388.8
L250.56 43.2" style="fill:none;stroke:#000000;stroke-dasharray:1.000000,3.000000;stroke-dashoffset:0.0;stroke-width:0.5;"/>
     </g>
     <g id="line2d_9">
      <g>
       <use style="stroke:#000000;stroke-width:0.5;" x="250.56" xlink:href="#m93b0483c22" y="388.8"/>
      </g>
     </g>
     <g id="line2d_10">
      <g>
       <use style="stroke:#000000;stroke-width:0.5;" x="250.56" xlink:href="#m741efc42ff" y="43.2"/>
      </g>
     </g>
     <g id="text_3">
      <!-- 0.4 -->
      <defs>
       <path d="
M37.7969 64.3125
L12.8906 25.3906
L37.7969 25.3906
z

M35.2031 72.9062
L47.6094 72.9062
L47.6094 25.3906
L58.0156 25.3906
L58.0156 17.1875
L47.6094 17.1875
L47.6094 0
L37.7969 0
L37.7969 17.1875
L4.89062 17.1875
L4.89062 26.7031
z
" id="BitstreamVeraSans-Roman-34"/>
      </defs>
      <g transform="translate(241.7503125 401.918125)scale(0.12 -0.12)">
       <use xlink:href="#BitstreamVeraSans-Roman-30"/>
       <use x="63.623046875" xlink:href="#BitstreamVeraSans-Roman-2e"/>
       <use x="95.41015625" xlink:href="#BitstreamVeraSans-Roman-34"/>
      </g>
     </g>
    </g>
    <g id="xtick_4">
     <g id="line2d_11">
      <path clip-path="url(#p7ff5b81e1d)" d="
M339.84 388.8
L339.84 43.2" style="fill:none;stroke:#000000;stroke-dasharray:1.000000,3.000000;stroke-dashoffset:0.0;stroke-width:0.5;"/>
     </g>
     <g id="line2d_12">
      <g>
       <use style="stroke:#000000;stroke-width:0.5;" x="339.84" xlink:href="#m93b0483c22" y="388.8"/>
      </g>
     </g>
     <g id="line2d_13">
      <g>
       <use style="stroke:#000000;stroke-width:0.5;" x="339.84" xlink:href="#m741efc42ff" y="43.2"/>
      </g>
     </g>
     <g id="text_4">
      <!-- 0.6 -->
      <defs>
       <path d="
M33.0156 40.375
Q26.375 40.375 22.4844 35.8281
Q18.6094 31.2969 18.6094 23.3906
Q18.6094 15.5312 22.4844 10.9531
Q26.375 6.39062 33.0156 6.39062
Q39.6562 6.39062 43.5312 10.9531
Q47.4062 15.5312 47.4062 23.3906
Q47.4062 31.2969 43.5312 35.8281
Q39.6562 40.375 33.0156 40.375
M52.5938 71.2969
L52.5938 62.3125
Q48.875 64.0625 45.0938 64.9844
Q41.3125 65.9219 37.5938 65.9219
Q27.8281 65.9219 22.6719 59.3281
Q17.5312 52.7344 16.7969 39.4062
Q19.6719 43.6562 24.0156 45.9219
Q28.375 48.1875 33.5938 48.1875
Q44.5781 48.1875 50.9531 41.5156
Q57.3281 34.8594 57.3281 23.3906
Q57.3281 12.1562 50.6875 5.35938
Q44.0469 -1.42188 33.0156 -1.42188
Q20.3594 -1.42188 13.6719 8.26562
Q6.98438 17.9688 6.98438 36.375
Q6.98438 53.6562 15.1875 63.9375
Q23.3906 74.2188 37.2031 74.2188
Q40.9219 74.2188 44.7031 73.4844
Q48.4844 72.75 52.5938 71.2969" id="BitstreamVeraSans-Roman-36"/>
      </defs>
      <g transform="translate(331.0715625 401.918125)scale(0.12 -0.12)">
       <use xlink:href="#BitstreamVeraSans-Roman-30"/>
       <use x="63.623046875" xlink:href="#BitstreamVeraSans-Roman-2e"/>
       <use x="95.41015625" xlink:href="#BitstreamVeraSans-Roman-36"/>
      </g>
     </g>
    </g>
    <g id="xtick_5">
     <g id="line2d_14">
      <path clip-path="url(#p7ff5b81e1d)" d="
M429.12 388.8
L429.12 43.2" style="fill:none;stroke:#000000;stroke-dasharray:1.000000,3.000000;stroke-dashoffset:0.0;stroke-width:0.5;"/>
     </g>
     <g id="line2d_15">
      <g>
       <use style="stroke:#000000;stroke-width:0.5;" x="429.12" xlink:href="#m93b0483c22" y="388.8"/>
      </g>
     </g>
     <g id="line2d_16">
      <g>
       <use style="stroke:#000000;stroke-width:0.5;" x="429.12" xlink:href="#m741efc42ff" y="43.2"/>
      </g>
     </g>
     <g id="text_5">
      <!-- 0.8 -->
      <defs>
       <path d="
M31.7812 34.625
Q24.75 34.625 20.7188 30.8594
Q16.7031 27.0938 16.7031 20.5156
Q16.7031 13.9219 20.7188 10.1562
Q24.75 6.39062 31.7812 6.39062
Q38.8125 6.39062 42.8594 10.1719
Q46.9219 13.9688 46.9219 20.5156
Q46.9219 27.0938 42.8906 30.8594
Q38.875 34.625 31.7812 34.625
M21.9219 38.8125
Q15.5781 40.375 12.0312 44.7188
Q8.5 49.0781 8.5 55.3281
Q8.5 64.0625 14.7188 69.1406
Q20.9531 74.2188 31.7812 74.2188
Q42.6719 74.2188 48.875 69.1406
Q55.0781 64.0625 55.0781 55.3281
Q55.0781 49.0781 51.5312 44.7188
Q48 40.375 41.7031 38.8125
Q48.8281 37.1562 52.7969 32.3125
Q56.7812 27.4844 56.7812 20.5156
Q56.7812 9.90625 50.3125 4.23438
Q43.8438 -1.42188 31.7812 -1.42188
Q19.7344 -1.42188 13.25 4.23438
Q6.78125 9.90625 6.78125 20.5156
Q6.78125 27.4844 10.7812 32.3125
Q14.7969 37.1562 21.9219 38.8125
M18.3125 54.3906
Q18.3125 48.7344 21.8438 45.5625
Q25.3906 42.3906 31.7812 42.3906
Q38.1406 42.3906 41.7188 45.5625
Q45.3125 48.7344 45.3125 54.3906
Q45.3125 60.0625 41.7188 63.2344
Q38.1406 66.4062 31.7812 66.4062
Q25.3906 66.4062 21.8438 63.2344
Q18.3125 60.0625 18.3125 54.3906" id="BitstreamVeraSans-Roman-38"/>
      </defs>
      <g transform="translate(420.384375 401.918125)scale(0.12 -0.12)">
       <use xlink:href="#BitstreamVeraSans-Roman-30"/>
       <use x="63.623046875" xlink:href="#BitstreamVeraSans-Roman-2e"/>
       <use x="95.41015625" xlink:href="#BitstreamVeraSans-Roman-38"/>
      </g>
     </g>
    </g>
    <g id="xtick_6">
     <g id="line2d_17">
      <path clip-path="url(#p7ff5b81e1d)" d="
M518.4 388.8
L518.4 43.2" style="fill:none;stroke:#000000;stroke-dasharray:1.000000,3.000000;stroke-dashoffset:0.0;stroke-width:0.5;"/>
     </g>
     <g id="line2d_18">
      <g>
       <use style="stroke:#000000;stroke-width:0.5;" x="518.4" xlink:href="#m93b0483c22" y="388.8"/>
      </g>
     </g>
     <g id="line2d_19">
      <g>
       <use style="stroke:#000000;stroke-width:0.5;" x="518.4" xlink:href="#m741efc42ff" y="43.2"/>
      </g>
     </g>
     <g id="text_6">
      <!-- 1.0 -->
      <defs>
       <path d="
M12.4062 8.29688
L28.5156 8.29688
L28.5156 63.9219
L10.9844 60.4062
L10.9844 69.3906
L28.4219 72.9062
L38.2812 72.9062
L38.2812 8.29688
L54.3906 8.29688
L54.3906 0
L12.4062 0
z
" id="BitstreamVeraSans-Roman-31"/>
      </defs>
      <g transform="translate(509.915625 401.918125)scale(0.12 -0.12)">
       <use xlink:href="#BitstreamVeraSans-Roman-31"/>
       <use x="63.623046875" xlink:href="#BitstreamVeraSans-Roman-2e"/>
       <use x="95.41015625" xlink:href="#BitstreamVeraSans-Roman-30"/>
      </g>
     </g>
    </g>
    <g id="text_7">
     <!-- Recall -->
     <defs>
      <path d="
M56.2031 29.5938
L56.2031 25.2031
L14.8906 25.2031
Q15.4844 15.9219 20.4844 11.0625
Q25.4844 6.20312 34.4219 6.20312
Q39.5938 6.20312 44.4531 7.46875
Q49.3125 8.73438 54.1094 11.2812
L54.1094 2.78125
Q49.2656 0.734375 44.1875 -0.34375
Q39.1094 -1.42188 33.8906 -1.42188
Q20.7969 -1.42188 13.1562 6.1875
Q5.51562 13.8125 5.51562 26.8125
Q5.51562 40.2344 12.7656 48.1094
Q20.0156 56 32.3281 56
Q43.3594 56 49.7812 48.8906
Q56.2031 41.7969 56.2031 29.5938
M47.2188 32.2344
Q47.125 39.5938 43.0938 43.9844
Q39.0625 48.3906 32.4219 48.3906
Q24.9062 48.3906 20.3906 44.1406
Q15.875 39.8906 15.1875 32.1719
z
" id="BitstreamVeraSans-Roman-65"/>
      <path d="
M44.3906 34.1875
Q47.5625 33.1094 50.5625 29.5938
Q53.5625 26.0781 56.5938 19.9219
L66.6094 0
L56 0
L46.6875 18.7031
Q43.0625 26.0312 39.6719 28.4219
Q36.2812 30.8125 30.4219 30.8125
L19.6719 30.8125
L19.6719 0
L9.8125 0
L9.8125 72.9062
L32.0781 72.9062
Q44.5781 72.9062 50.7344 67.6719
Q56.8906 62.4531 56.8906 51.9062
Q56.8906 45.0156 53.6875 40.4688
Q50.4844 35.9375 44.3906 34.1875
M19.6719 64.7969
L19.6719 38.9219
L32.0781 38.9219
Q39.2031 38.9219 42.8438 42.2188
Q46.4844 45.5156 46.4844 51.9062
Q46.4844 58.2969 42.8438 61.5469
Q39.2031 64.7969 32.0781 64.7969
z
" id="BitstreamVeraSans-Roman-52"/>
      <path d="
M34.2812 27.4844
Q23.3906 27.4844 19.1875 25
Q14.9844 22.5156 14.9844 16.5
Q14.9844 11.7188 18.1406 8.90625
Q21.2969 6.10938 26.7031 6.10938
Q34.1875 6.10938 38.7031 11.4062
Q43.2188 16.7031 43.2188 25.4844
L43.2188 27.4844
z

M52.2031 31.2031
L52.2031 0
L43.2188 0
L43.2188 8.29688
Q40.1406 3.32812 35.5469 0.953125
Q30.9531 -1.42188 24.3125 -1.42188
Q15.9219 -1.42188 10.9531 3.29688
Q6 8.01562 6 15.9219
Q6 25.1406 12.1719 29.8281
Q18.3594 34.5156 30.6094 34.5156
L43.2188 34.5156
L43.2188 35.4062
Q43.2188 41.6094 39.1406 45
Q35.0625 48.3906 27.6875 48.3906
Q23 48.3906 18.5469 47.2656
Q14.1094 46.1406 10.0156 43.8906
L10.0156 52.2031
Q14.9375 54.1094 19.5781 55.0469
Q24.2188 56 28.6094 56
Q40.4844 56 46.3438 49.8438
Q52.2031 43.7031 52.2031 31.2031" id="BitstreamVeraSans-Roman-61"/>
      <path d="
M9.42188 75.9844
L18.4062 75.9844
L18.4062 0
L9.42188 0
z
" id="BitstreamVeraSans-Roman-6c"/>
      <path d="
M48.7812 52.5938
L48.7812 44.1875
Q44.9688 46.2969 41.1406 47.3438
Q37.3125 48.3906 33.4062 48.3906
Q24.6562 48.3906 19.8125 42.8438
Q14.9844 37.3125 14.9844 27.2969
Q14.9844 17.2812 19.8125 11.7344
Q24.6562 6.20312 33.4062 6.20312
Q37.3125 6.20312 41.1406 7.25
Q44.9688 8.29688 48.7812 10.4062
L48.7812 2.09375
Q45.0156 0.34375 40.9844 -0.53125
Q36.9688 -1.42188 32.4219 -1.42188
Q20.0625 -1.42188 12.7812 6.34375
Q5.51562 14.1094 5.51562 27.2969
Q5.51562 40.6719 12.8594 48.3281
Q20.2188 56 33.0156 56
Q37.1562 56 41.1094 55.1406
Q45.0625 54.2969 48.7812 52.5938" id="BitstreamVeraSans-Roman-63"/>
     </defs>
     <g transform="translate(278.450625 418.531875)scale(0.12 -0.12)">
      <use xlink:href="#BitstreamVeraSans-Roman-52"/>
      <use x="64.982421875" xlink:href="#BitstreamVeraSans-Roman-65"/>
      <use x="126.505859375" xlink:href="#BitstreamVeraSans-Roman-63"/>
      <use x="181.486328125" xlink:href="#BitstreamVeraSans-Roman-61"/>
      <use x="242.765625" xlink:href="#BitstreamVeraSans-Roman-6c"/>
      <use x="270.548828125" xlink:href="#BitstreamVeraSans-Roman-6c"/>
     </g>
    </g>
   </g>
   <g id="matplotlib.axis_2">
    <g id="ytick_1">
     <g id="line2d_20">
      <path clip-path="url(#p7ff5b81e1d)" d="
M72 356.94
L518.4 356.94" style="fill:none;stroke:#000000;stroke-dasharray:1.000000,3.000000;stroke-dashoffset:0.0;stroke-width:0.5;"/>
     </g>
     <g id="line2d_21">
      <defs>
       <path d="
M0 0
L4 0" id="m728421d6d4" style="stroke:#000000;stroke-width:0.5;"/>
      </defs>
      <g>
       <use style="stroke:#000000;stroke-width:0.5;" x="72.0" xlink:href="#m728421d6d4" y="356.94"/>
      </g>
     </g>
     <g id="line2d_22">
      <defs>
       <path d="
M0 0
L-4 0" id="mcb0005524f" style="stroke:#000000;stroke-width:0.5;"/>
      </defs>
      <g>
       <use style="stroke:#000000;stroke-width:0.5;" x="518.4" xlink:href="#mcb0005524f" y="356.94"/>
      </g>
     </g>
     <g id="text_8">
      <!-- 0.65 -->
      <defs>
       <path d="
M10.7969 72.9062
L49.5156 72.9062
L49.5156 64.5938
L19.8281 64.5938
L19.8281 46.7344
Q21.9688 47.4688 24.1094 47.8281
Q26.2656 48.1875 28.4219 48.1875
Q40.625 48.1875 47.75 41.5
Q54.8906 34.8125 54.8906 23.3906
Q54.8906 11.625 47.5625 5.09375
Q40.2344 -1.42188 26.9062 -1.42188
Q22.3125 -1.42188 17.5469 -0.640625
Q12.7969 0.140625 7.71875 1.70312
L7.71875 11.625
Q12.1094 9.23438 16.7969 8.0625
Q21.4844 6.89062 26.7031 6.89062
Q35.1562 6.89062 40.0781 11.3281
Q45.0156 15.7656 45.0156 23.3906
Q45.0156 31 40.0781 35.4375
Q35.1562 39.8906 26.7031 39.8906
Q22.75 39.8906 18.8125 39.0156
Q14.8906 38.1406 10.7969 36.2812
z
" id="BitstreamVeraSans-Roman-35"/>
      </defs>
      <g transform="translate(43.120625 360.25125)scale(0.12 -0.12)">
       <use xlink:href="#BitstreamVeraSans-Roman-30"/>
       <use x="63.623046875" xlink:href="#BitstreamVeraSans-Roman-2e"/>
       <use x="95.41015625" xlink:href="#BitstreamVeraSans-Roman-36"/>
       <use x="159.033203125" xlink:href="#BitstreamVeraSans-Roman-35"/>
      </g>
     </g>
    </g>
    <g id="ytick_2">
     <g id="line2d_23">
      <path clip-path="url(#p7ff5b81e1d)" d="
M72 312.12
L518.4 312.12" style="fill:none;stroke:#000000;stroke-dasharray:1.000000,3.000000;stroke-dashoffset:0.0;stroke-width:0.5;"/>
     </g>
     <g id="line2d_24">
      <g>
       <use style="stroke:#000000;stroke-width:0.5;" x="72.0" xlink:href="#m728421d6d4" y="312.12"/>
      </g>
     </g>
     <g id="line2d_25">
      <g>
       <use style="stroke:#000000;stroke-width:0.5;" x="518.4" xlink:href="#mcb0005524f" y="312.12"/>
      </g>
     </g>
     <g id="text_9">
      <!-- 0.70 -->
      <defs>
       <path d="
M8.20312 72.9062
L55.0781 72.9062
L55.0781 68.7031
L28.6094 0
L18.3125 0
L43.2188 64.5938
L8.20312 64.5938
z
" id="BitstreamVeraSans-Roman-37"/>
      </defs>
      <g transform="translate(42.869375 315.43125)scale(0.12 -0.12)">
       <use xlink:href="#BitstreamVeraSans-Roman-30"/>
       <use x="63.623046875" xlink:href="#BitstreamVeraSans-Roman-2e"/>
       <use x="95.41015625" xlink:href="#BitstreamVeraSans-Roman-37"/>
       <use x="159.033203125" xlink:href="#BitstreamVeraSans-Roman-30"/>
      </g>
     </g>
    </g>
    <g id="ytick_3">
     <g id="line2d_26">
      <path clip-path="url(#p7ff5b81e1d)" d="
M72 267.3
L518.4 267.3" style="fill:none;stroke:#000000;stroke-dasharray:1.000000,3.000000;stroke-dashoffset:0.0;stroke-width:0.5;"/>
     </g>
     <g id="line2d_27">
      <g>
       <use style="stroke:#000000;stroke-width:0.5;" x="72.0" xlink:href="#m728421d6d4" y="267.3"/>
      </g>
     </g>
     <g id="line2d_28">
      <g>
       <use style="stroke:#000000;stroke-width:0.5;" x="518.4" xlink:href="#mcb0005524f" y="267.3"/>
      </g>
     </g>
     <g id="text_10">
      <!-- 0.75 -->
      <g transform="translate(43.120625 270.61125)scale(0.12 -0.12)">
       <use xlink:href="#BitstreamVeraSans-Roman-30"/>
       <use x="63.623046875" xlink:href="#BitstreamVeraSans-Roman-2e"/>
       <use x="95.41015625" xlink:href="#BitstreamVeraSans-Roman-37"/>
       <use x="159.033203125" xlink:href="#BitstreamVeraSans-Roman-35"/>
      </g>
     </g>
    </g>
    <g id="ytick_4">
     <g id="line2d_29">
      <path clip-path="url(#p7ff5b81e1d)" d="
M72 222.48
L518.4 222.48" style="fill:none;stroke:#000000;stroke-dasharray:1.000000,3.000000;stroke-dashoffset:0.0;stroke-width:0.5;"/>
     </g>
     <g id="line2d_30">
      <g>
       <use style="stroke:#000000;stroke-width:0.5;" x="72.0" xlink:href="#m728421d6d4" y="222.48"/>
      </g>
     </g>
     <g id="line2d_31">
      <g>
       <use style="stroke:#000000;stroke-width:0.5;" x="518.4" xlink:href="#mcb0005524f" y="222.48"/>
      </g>
     </g>
     <g id="text_11">
      <!-- 0.80 -->
      <g transform="translate(42.869375 225.79125)scale(0.12 -0.12)">
       <use xlink:href="#BitstreamVeraSans-Roman-30"/>
       <use x="63.623046875" xlink:href="#BitstreamVeraSans-Roman-2e"/>
       <use x="95.41015625" xlink:href="#BitstreamVeraSans-Roman-38"/>
       <use x="159.033203125" xlink:href="#BitstreamVeraSans-Roman-30"/>
      </g>
     </g>
    </g>
    <g id="ytick_5">
     <g id="line2d_32">
      <path clip-path="url(#p7ff5b81e1d)" d="
M72 177.66
L518.4 177.66" style="fill:none;stroke:#000000;stroke-dasharray:1.000000,3.000000;stroke-dashoffset:0.0;stroke-width:0.5;"/>
     </g>
     <g id="line2d_33">
      <g>
       <use style="stroke:#000000;stroke-width:0.5;" x="72.0" xlink:href="#m728421d6d4" y="177.66"/>
      </g>
     </g>
     <g id="line2d_34">
      <g>
       <use style="stroke:#000000;stroke-width:0.5;" x="518.4" xlink:href="#mcb0005524f" y="177.66"/>
      </g>
     </g>
     <g id="text_12">
      <!-- 0.85 -->
      <g transform="translate(43.120625 180.97125)scale(0.12 -0.12)">
       <use xlink:href="#BitstreamVeraSans-Roman-30"/>
       <use x="63.623046875" xlink:href="#BitstreamVeraSans-Roman-2e"/>
       <use x="95.41015625" xlink:href="#BitstreamVeraSans-Roman-38"/>
       <use x="159.033203125" xlink:href="#BitstreamVeraSans-Roman-35"/>
      </g>
     </g>
    </g>
    <g id="ytick_6">
     <g id="line2d_35">
      <path clip-path="url(#p7ff5b81e1d)" d="
M72 132.84
L518.4 132.84" style="fill:none;stroke:#000000;stroke-dasharray:1.000000,3.000000;stroke-dashoffset:0.0;stroke-width:0.5;"/>
     </g>
     <g id="line2d_36">
      <g>
       <use style="stroke:#000000;stroke-width:0.5;" x="72.0" xlink:href="#m728421d6d4" y="132.84"/>
      </g>
     </g>
     <g id="line2d_37">
      <g>
       <use style="stroke:#000000;stroke-width:0.5;" x="518.4" xlink:href="#mcb0005524f" y="132.84"/>
      </g>
     </g>
     <g id="text_13">
      <!-- 0.90 -->
      <defs>
       <path d="
M10.9844 1.51562
L10.9844 10.5
Q14.7031 8.73438 18.5 7.8125
Q22.3125 6.89062 25.9844 6.89062
Q35.75 6.89062 40.8906 13.4531
Q46.0469 20.0156 46.7812 33.4062
Q43.9531 29.2031 39.5938 26.9531
Q35.25 24.7031 29.9844 24.7031
Q19.0469 24.7031 12.6719 31.3125
Q6.29688 37.9375 6.29688 49.4219
Q6.29688 60.6406 12.9375 67.4219
Q19.5781 74.2188 30.6094 74.2188
Q43.2656 74.2188 49.9219 64.5156
Q56.5938 54.8281 56.5938 36.375
Q56.5938 19.1406 48.4062 8.85938
Q40.2344 -1.42188 26.4219 -1.42188
Q22.7031 -1.42188 18.8906 -0.6875
Q15.0938 0.046875 10.9844 1.51562
M30.6094 32.4219
Q37.25 32.4219 41.125 36.9531
Q45.0156 41.5 45.0156 49.4219
Q45.0156 57.2812 41.125 61.8438
Q37.25 66.4062 30.6094 66.4062
Q23.9688 66.4062 20.0938 61.8438
Q16.2188 57.2812 16.2188 49.4219
Q16.2188 41.5 20.0938 36.9531
Q23.9688 32.4219 30.6094 32.4219" id="BitstreamVeraSans-Roman-39"/>
      </defs>
      <g transform="translate(42.869375 136.15125)scale(0.12 -0.12)">
       <use xlink:href="#BitstreamVeraSans-Roman-30"/>
       <use x="63.623046875" xlink:href="#BitstreamVeraSans-Roman-2e"/>
       <use x="95.41015625" xlink:href="#BitstreamVeraSans-Roman-39"/>
       <use x="159.033203125" xlink:href="#BitstreamVeraSans-Roman-30"/>
      </g>
     </g>
    </g>
    <g id="ytick_7">
     <g id="line2d_38">
      <path clip-path="url(#p7ff5b81e1d)" d="
M72 88.02
L518.4 88.02" style="fill:none;stroke:#000000;stroke-dasharray:1.000000,3.000000;stroke-dashoffset:0.0;stroke-width:0.5;"/>
     </g>
     <g id="line2d_39">
      <g>
       <use style="stroke:#000000;stroke-width:0.5;" x="72.0" xlink:href="#m728421d6d4" y="88.02"/>
      </g>
     </g>
     <g id="line2d_40">
      <g>
       <use style="stroke:#000000;stroke-width:0.5;" x="518.4" xlink:href="#mcb0005524f" y="88.02"/>
      </g>
     </g>
     <g id="text_14">
      <!-- 0.95 -->
      <g transform="translate(43.120625 91.33125)scale(0.12 -0.12)">
       <use xlink:href="#BitstreamVeraSans-Roman-30"/>
       <use x="63.623046875" xlink:href="#BitstreamVeraSans-Roman-2e"/>
       <use x="95.41015625" xlink:href="#BitstreamVeraSans-Roman-39"/>
       <use x="159.033203125" xlink:href="#BitstreamVeraSans-Roman-35"/>
      </g>
     </g>
    </g>
    <g id="ytick_8">
     <g id="line2d_41">
      <path clip-path="url(#p7ff5b81e1d)" d="
M72 43.2
L518.4 43.2" style="fill:none;stroke:#000000;stroke-dasharray:1.000000,3.000000;stroke-dashoffset:0.0;stroke-width:0.5;"/>
     </g>
     <g id="line2d_42">
      <g>
       <use style="stroke:#000000;stroke-width:0.5;" x="72.0" xlink:href="#m728421d6d4" y="43.2"/>
      </g>
     </g>
     <g id="line2d_43">
      <g>
       <use style="stroke:#000000;stroke-width:0.5;" x="518.4" xlink:href="#mcb0005524f" y="43.2"/>
      </g>
     </g>
     <g id="text_15">
      <!-- 1.00 -->
      <g transform="translate(43.39625 46.51125)scale(0.12 -0.12)">
       <use xlink:href="#BitstreamVeraSans-Roman-31"/>
       <use x="63.623046875" xlink:href="#BitstreamVeraSans-Roman-2e"/>
       <use x="95.41015625" xlink:href="#BitstreamVeraSans-Roman-30"/>
       <use x="159.033203125" xlink:href="#BitstreamVeraSans-Roman-30"/>
      </g>
     </g>
    </g>
    <g id="text_16">
     <!-- Precision -->
     <defs>
      <path d="
M54.8906 33.0156
L54.8906 0
L45.9062 0
L45.9062 32.7188
Q45.9062 40.4844 42.875 44.3281
Q39.8438 48.1875 33.7969 48.1875
Q26.5156 48.1875 22.3125 43.5469
Q18.1094 38.9219 18.1094 30.9062
L18.1094 0
L9.07812 0
L9.07812 54.6875
L18.1094 54.6875
L18.1094 46.1875
Q21.3438 51.125 25.7031 53.5625
Q30.0781 56 35.7969 56
Q45.2188 56 50.0469 50.1719
Q54.8906 44.3438 54.8906 33.0156" id="BitstreamVeraSans-Roman-6e"/>
      <path d="
M30.6094 48.3906
Q23.3906 48.3906 19.1875 42.75
Q14.9844 37.1094 14.9844 27.2969
Q14.9844 17.4844 19.1562 11.8438
Q23.3438 6.20312 30.6094 6.20312
Q37.7969 6.20312 41.9844 11.8594
Q46.1875 17.5312 46.1875 27.2969
Q46.1875 37.0156 41.9844 42.7031
Q37.7969 48.3906 30.6094 48.3906
M30.6094 56
Q42.3281 56 49.0156 48.375
Q55.7188 40.7656 55.7188 27.2969
Q55.7188 13.875 49.0156 6.21875
Q42.3281 -1.42188 30.6094 -1.42188
Q18.8438 -1.42188 12.1719 6.21875
Q5.51562 13.875 5.51562 27.2969
Q5.51562 40.7656 12.1719 48.375
Q18.8438 56 30.6094 56" id="BitstreamVeraSans-Roman-6f"/>
      <path d="
M19.6719 64.7969
L19.6719 37.4062
L32.0781 37.4062
Q38.9688 37.4062 42.7188 40.9688
Q46.4844 44.5312 46.4844 51.125
Q46.4844 57.6719 42.7188 61.2344
Q38.9688 64.7969 32.0781 64.7969
z

M9.8125 72.9062
L32.0781 72.9062
Q44.3438 72.9062 50.6094 67.3594
Q56.8906 61.8125 56.8906 51.125
Q56.8906 40.3281 50.6094 34.8125
Q44.3438 29.2969 32.0781 29.2969
L19.6719 29.2969
L19.6719 0
L9.8125 0
z
" id="BitstreamVeraSans-Roman-50"/>
      <path d="
M9.42188 54.6875
L18.4062 54.6875
L18.4062 0
L9.42188 0
z

M9.42188 75.9844
L18.4062 75.9844
L18.4062 64.5938
L9.42188 64.5938
z
" id="BitstreamVeraSans-Roman-69"/>
      <path d="
M41.1094 46.2969
Q39.5938 47.1719 37.8125 47.5781
Q36.0312 48 33.8906 48
Q26.2656 48 22.1875 43.0469
Q18.1094 38.0938 18.1094 28.8125
L18.1094 0
L9.07812 0
L9.07812 54.6875
L18.1094 54.6875
L18.1094 46.1875
Q20.9531 51.1719 25.4844 53.5781
Q30.0312 56 36.5312 56
Q37.4531 56 38.5781 55.875
Q39.7031 55.7656 41.0625 55.5156
z
" id="BitstreamVeraSans-Roman-72"/>
      <path d="
M44.2812 53.0781
L44.2812 44.5781
Q40.4844 46.5312 36.375 47.5
Q32.2812 48.4844 27.875 48.4844
Q21.1875 48.4844 17.8438 46.4375
Q14.5 44.3906 14.5 40.2812
Q14.5 37.1562 16.8906 35.375
Q19.2812 33.5938 26.5156 31.9844
L29.5938 31.2969
Q39.1562 29.25 43.1875 25.5156
Q47.2188 21.7812 47.2188 15.0938
Q47.2188 7.46875 41.1875 3.01562
Q35.1562 -1.42188 24.6094 -1.42188
Q20.2188 -1.42188 15.4531 -0.5625
Q10.6875 0.296875 5.42188 2
L5.42188 11.2812
Q10.4062 8.6875 15.2344 7.39062
Q20.0625 6.10938 24.8125 6.10938
Q31.1562 6.10938 34.5625 8.28125
Q37.9844 10.4531 37.9844 14.4062
Q37.9844 18.0625 35.5156 20.0156
Q33.0625 21.9688 24.7031 23.7812
L21.5781 24.5156
Q13.2344 26.2656 9.51562 29.9062
Q5.8125 33.5469 5.8125 39.8906
Q5.8125 47.6094 11.2812 51.7969
Q16.75 56 26.8125 56
Q31.7812 56 36.1719 55.2656
Q40.5781 54.5469 44.2812 53.0781" id="BitstreamVeraSans-Roman-73"/>
     </defs>
     <g transform="translate(35.37375 241.670625)rotate(-90.0)scale(0.12 -0.12)">
      <use xlink:href="#BitstreamVeraSans-Roman-50"/>
      <use x="58.552734375" xlink:href="#BitstreamVeraSans-Roman-72"/>
      <use x="97.416015625" xlink:href="#BitstreamVeraSans-Roman-65"/>
      <use x="158.939453125" xlink:href="#BitstreamVeraSans-Roman-63"/>
      <use x="213.919921875" xlink:href="#BitstreamVeraSans-Roman-69"/>
      <use x="241.703125" xlink:href="#BitstreamVeraSans-Roman-73"/>
      <use x="293.802734375" xlink:href="#BitstreamVeraSans-Roman-69"/>
      <use x="321.5859375" xlink:href="#BitstreamVeraSans-Roman-6f"/>
      <use x="382.767578125" xlink:href="#BitstreamVeraSans-Roman-6e"/>
     </g>
    </g>
   </g>
   <g id="patch_3">
    <path d="
M72 43.2
L518.4 43.2" style="fill:none;stroke:#000000;"/>
   </g>
   <g id="patch_4">
    <path d="
M518.4 388.8
L518.4 43.2" style="fill:none;stroke:#000000;"/>
   </g>
   <g id="patch_5">
    <path d="
M72 388.8
L518.4 388.8" style="fill:none;stroke:#000000;"/>
   </g>
   <g id="patch_6">
    <path d="
M72 388.8
L72 43.2" style="fill:none;stroke:#000000;"/>
   </g>
   <g id="text_17">
    <!-- SVM: Precision vs Recall(Thr=0.480550920727, Up) -->
    <defs>
     <path id="BitstreamVeraSans-Roman-20"/>
     <path d="
M9.8125 72.9062
L24.5156 72.9062
L43.1094 23.2969
L61.8125 72.9062
L76.5156 72.9062
L76.5156 0
L66.8906 0
L66.8906 64.0156
L48.0938 14.0156
L38.1875 14.0156
L19.3906 64.0156
L19.3906 0
L9.8125 0
z
" id="BitstreamVeraSans-Roman-4d"/>
     <path d="
M18.1094 8.20312
L18.1094 -20.7969
L9.07812 -20.7969
L9.07812 54.6875
L18.1094 54.6875
L18.1094 46.3906
Q20.9531 51.2656 25.2656 53.625
Q29.5938 56 35.5938 56
Q45.5625 56 51.7812 48.0938
Q58.0156 40.1875 58.0156 27.2969
Q58.0156 14.4062 51.7812 6.48438
Q45.5625 -1.42188 35.5938 -1.42188
Q29.5938 -1.42188 25.2656 0.953125
Q20.9531 3.32812 18.1094 8.20312
M48.6875 27.2969
Q48.6875 37.2031 44.6094 42.8438
Q40.5312 48.4844 33.4062 48.4844
Q26.2656 48.4844 22.1875 42.8438
Q18.1094 37.2031 18.1094 27.2969
Q18.1094 17.3906 22.1875 11.75
Q26.2656 6.10938 33.4062 6.10938
Q40.5312 6.10938 44.6094 11.75
Q48.6875 17.3906 48.6875 27.2969" id="BitstreamVeraSans-Roman-70"/>
     <path d="
M10.5938 45.4062
L73.1875 45.4062
L73.1875 37.2031
L10.5938 37.2031
z

M10.5938 25.4844
L73.1875 25.4844
L73.1875 17.1875
L10.5938 17.1875
z
" id="BitstreamVeraSans-Roman-3d"/>
     <path d="
M8.01562 75.875
L15.8281 75.875
Q23.1406 64.3594 26.7812 53.3125
Q30.4219 42.2812 30.4219 31.3906
Q30.4219 20.4531 26.7812 9.375
Q23.1406 -1.70312 15.8281 -13.1875
L8.01562 -13.1875
Q14.5 -2 17.7031 9.0625
Q20.9062 20.125 20.9062 31.3906
Q20.9062 42.6719 17.7031 53.6562
Q14.5 64.6562 8.01562 75.875" id="BitstreamVeraSans-Roman-29"/>
     <path d="
M31 75.875
Q24.4688 64.6562 21.2812 53.6562
Q18.1094 42.6719 18.1094 31.3906
Q18.1094 20.125 21.3125 9.0625
Q24.5156 -2 31 -13.1875
L23.1875 -13.1875
Q15.875 -1.70312 12.2344 9.375
Q8.59375 20.4531 8.59375 31.3906
Q8.59375 42.2812 12.2031 53.3125
Q15.8281 64.3594 23.1875 75.875
z
" id="BitstreamVeraSans-Roman-28"/>
     <path d="
M11.7188 12.4062
L22.0156 12.4062
L22.0156 4
L14.0156 -11.625
L7.71875 -11.625
L11.7188 4
z
" id="BitstreamVeraSans-Roman-2c"/>
     <path d="
M11.7188 12.4062
L22.0156 12.4062
L22.0156 0
L11.7188 0
z

M11.7188 51.7031
L22.0156 51.7031
L22.0156 39.3125
L11.7188 39.3125
z
" id="BitstreamVeraSans-Roman-3a"/>
     <path d="
M-0.296875 72.9062
L61.375 72.9062
L61.375 64.5938
L35.5 64.5938
L35.5 0
L25.5938 0
L25.5938 64.5938
L-0.296875 64.5938
z
" id="BitstreamVeraSans-Roman-54"/>
     <path d="
M54.8906 33.0156
L54.8906 0
L45.9062 0
L45.9062 32.7188
Q45.9062 40.4844 42.875 44.3281
Q39.8438 48.1875 33.7969 48.1875
Q26.5156 48.1875 22.3125 43.5469
Q18.1094 38.9219 18.1094 30.9062
L18.1094 0
L9.07812 0
L9.07812 75.9844
L18.1094 75.9844
L18.1094 46.1875
Q21.3438 51.125 25.7031 53.5625
Q30.0781 56 35.7969 56
Q45.2188 56 50.0469 50.1719
Q54.8906 44.3438 54.8906 33.0156" id="BitstreamVeraSans-Roman-68"/>
     <path d="
M28.6094 0
L0.78125 72.9062
L11.0781 72.9062
L34.1875 11.5312
L57.3281 72.9062
L67.5781 72.9062
L39.7969 0
z
" id="BitstreamVeraSans-Roman-56"/>
     <path d="
M2.98438 54.6875
L12.5 54.6875
L29.5938 8.79688
L46.6875 54.6875
L56.2031 54.6875
L35.6875 0
L23.4844 0
z
" id="BitstreamVeraSans-Roman-76"/>
     <path d="
M53.5156 70.5156
L53.5156 60.8906
Q47.9062 63.5781 42.9219 64.8906
Q37.9375 66.2188 33.2969 66.2188
Q25.25 66.2188 20.875 63.0938
Q16.5 59.9688 16.5 54.2031
Q16.5 49.3594 19.4062 46.8906
Q22.3125 44.4375 30.4219 42.9219
L36.375 41.7031
Q47.4062 39.5938 52.6562 34.2969
Q57.9062 29 57.9062 20.125
Q57.9062 9.51562 50.7969 4.04688
Q43.7031 -1.42188 29.9844 -1.42188
Q24.8125 -1.42188 18.9688 -0.25
Q13.1406 0.921875 6.89062 3.21875
L6.89062 13.375
Q12.8906 10.0156 18.6562 8.29688
Q24.4219 6.59375 29.9844 6.59375
Q38.4219 6.59375 43.0156 9.90625
Q47.6094 13.2344 47.6094 19.3906
Q47.6094 24.75 44.3125 27.7812
Q41.0156 30.8125 33.5 32.3281
L27.4844 33.5
Q16.4531 35.6875 11.5156 40.375
Q6.59375 45.0625 6.59375 53.4219
Q6.59375 63.0938 13.4062 68.6562
Q20.2188 74.2188 32.1719 74.2188
Q37.3125 74.2188 42.625 73.2812
Q47.9531 72.3594 53.5156 70.5156" id="BitstreamVeraSans-Roman-53"/>
     <path d="
M8.6875 72.9062
L18.6094 72.9062
L18.6094 28.6094
Q18.6094 16.8906 22.8438 11.7344
Q27.0938 6.59375 36.625 6.59375
Q46.0938 6.59375 50.3438 11.7344
Q54.5938 16.8906 54.5938 28.6094
L54.5938 72.9062
L64.5 72.9062
L64.5 27.3906
Q64.5 13.1406 57.4375 5.85938
Q50.3906 -1.42188 36.625 -1.42188
Q22.7969 -1.42188 15.7344 5.85938
Q8.6875 13.1406 8.6875 27.3906
z
" id="BitstreamVeraSans-Roman-55"/>
    </defs>
    <g transform="translate(109.37475 38.2)scale(0.144 -0.144)">
     <use xlink:href="#BitstreamVeraSans-Roman-53"/>
     <use x="63.4765625" xlink:href="#BitstreamVeraSans-Roman-56"/>
     <use x="131.884765625" xlink:href="#BitstreamVeraSans-Roman-4d"/>
     <use x="218.1640625" xlink:href="#BitstreamVeraSans-Roman-3a"/>
     <use x="251.85546875" xlink:href="#BitstreamVeraSans-Roman-20"/>
     <use x="283.642578125" xlink:href="#BitstreamVeraSans-Roman-50"/>
     <use x="342.1953125" xlink:href="#BitstreamVeraSans-Roman-72"/>
     <use x="381.05859375" xlink:href="#BitstreamVeraSans-Roman-65"/>
     <use x="442.58203125" xlink:href="#BitstreamVeraSans-Roman-63"/>
     <use x="497.5625" xlink:href="#BitstreamVeraSans-Roman-69"/>
     <use x="525.345703125" xlink:href="#BitstreamVeraSans-Roman-73"/>
     <use x="577.4453125" xlink:href="#BitstreamVeraSans-Roman-69"/>
     <use x="605.228515625" xlink:href="#BitstreamVeraSans-Roman-6f"/>
     <use x="666.41015625" xlink:href="#BitstreamVeraSans-Roman-6e"/>
     <use x="729.7890625" xlink:href="#BitstreamVeraSans-Roman-20"/>
     <use x="761.576171875" xlink:href="#BitstreamVeraSans-Roman-76"/>
     <use x="820.755859375" xlink:href="#BitstreamVeraSans-Roman-73"/>
     <use x="872.85546875" xlink:href="#BitstreamVeraSans-Roman-20"/>
     <use x="904.642578125" xlink:href="#BitstreamVeraSans-Roman-52"/>
     <use x="969.625" xlink:href="#BitstreamVeraSans-Roman-65"/>
     <use x="1031.1484375" xlink:href="#BitstreamVeraSans-Roman-63"/>
     <use x="1086.12890625" xlink:href="#BitstreamVeraSans-Roman-61"/>
     <use x="1147.40820312" xlink:href="#BitstreamVeraSans-Roman-6c"/>
     <use x="1175.19140625" xlink:href="#BitstreamVeraSans-Roman-6c"/>
     <use x="1202.97460938" xlink:href="#BitstreamVeraSans-Roman-28"/>
     <use x="1241.98828125" xlink:href="#BitstreamVeraSans-Roman-54"/>
     <use x="1303.07226562" xlink:href="#BitstreamVeraSans-Roman-68"/>
     <use x="1366.45117188" xlink:href="#BitstreamVeraSans-Roman-72"/>
     <use x="1407.56445312" xlink:href="#BitstreamVeraSans-Roman-3d"/>
     <use x="1491.35351562" xlink:href="#BitstreamVeraSans-Roman-30"/>
     <use x="1554.9765625" xlink:href="#BitstreamVeraSans-Roman-2e"/>
     <use x="1586.76367188" xlink:href="#BitstreamVeraSans-Roman-34"/>
     <use x="1650.38671875" xlink:href="#BitstreamVeraSans-Roman-38"/>
     <use x="1714.00976562" xlink:href="#BitstreamVeraSans-Roman-30"/>
     <use x="1777.6328125" xlink:href="#BitstreamVeraSans-Roman-35"/>
     <use x="1841.25585938" xlink:href="#BitstreamVeraSans-Roman-35"/>
     <use x="1904.87890625" xlink:href="#BitstreamVeraSans-Roman-30"/>
     <use x="1968.50195312" xlink:href="#BitstreamVeraSans-Roman-39"/>
     <use x="2032.125" xlink:href="#BitstreamVeraSans-Roman-32"/>
     <use x="2095.74804688" xlink:href="#BitstreamVeraSans-Roman-30"/>
     <use x="2159.37109375" xlink:href="#BitstreamVeraSans-Roman-37"/>
     <use x="2222.99414062" xlink:href="#BitstreamVeraSans-Roman-32"/>
     <use x="2286.6171875" xlink:href="#BitstreamVeraSans-Roman-37"/>
     <use x="2350.24023438" xlink:href="#BitstreamVeraSans-Roman-2c"/>
     <use x="2382.02734375" xlink:href="#BitstreamVeraSans-Roman-20"/>
     <use x="2413.81445312" xlink:href="#BitstreamVeraSans-Roman-55"/>
     <use x="2487.0078125" xlink:href="#BitstreamVeraSans-Roman-70"/>
     <use x="2550.484375" xlink:href="#BitstreamVeraSans-Roman-29"/>
    </g>
   </g>
  </g>
 </g>
 <defs>
  <clipPath id="p7ff5b81e1d">
   <rect height="345.6" width="446.4" x="72.0" y="43.2"/>
  </clipPath>
 </defs>
</svg>
